<?xml version="1.0" encoding="UTF-8" standalone="no"?>
<svg
   width="1024"
   zoomAndPan="magnify"
   viewBox="0 0 768 767.999994"
   height="1024"
   preserveAspectRatio="xMidYMid meet"
   version="1.0"
   id="svg43"
   sodipodi:docname="parth.svg"
   inkscape:version="1.4 (e7c3feb, 2024-10-09)"
   xmlns:inkscape="http://www.inkscape.org/namespaces/inkscape"
   xmlns:sodipodi="http://sodipodi.sourceforge.net/DTD/sodipodi-0.dtd"
   xmlns="http://www.w3.org/2000/svg"
   xmlns:svg="http://www.w3.org/2000/svg">
  <sodipodi:namedview
     id="namedview43"
     pagecolor="#ffffff"
     bordercolor="#000000"
     borderopacity="0.25"
     inkscape:showpageshadow="2"
     inkscape:pageopacity="0.0"
     inkscape:pagecheckerboard="0"
     inkscape:deskcolor="#d1d1d1"
     inkscape:zoom="0.78417969"
     inkscape:cx="547.7061"
     inkscape:cy="490.3213"
     inkscape:window-width="1247"
     inkscape:window-height="1011"
     inkscape:window-x="66"
     inkscape:window-y="32"
     inkscape:window-maximized="0"
     inkscape:current-layer="svg43" />
  <defs
     id="defs1">
    <g
       id="g1" />
  </defs>
  <g
     fill="#ffffff"
     fill-opacity="1"
     id="g19"
     style="fill:#0000ff">
    <g
       transform="translate(128.081341, 530.296079)"
       id="g18"
       style="fill:#0000ff">
      <g
         id="g17"
         style="fill:#0000ff" />
    </g>
  </g>
  <g
     fill="#1aede6"
     fill-opacity="1"
     id="g40"
     style="fill:#0000ff">
    <g
       transform="translate(26.214175, 532.429038)"
       id="g39"
       style="fill:#0000ff">
      <g
         id="g38"
         style="fill:#0000ff">
        <path
           d="M 31.234375 -121.65625 C 51.460938 -125.425781 61.578125 -135.835938 61.578125 -152.890625 C 61.578125 -160.421875 60.582031 -173.3125 58.59375 -191.5625 C 56.613281 -210.988281 55.625 -225.066406 55.625 -233.796875 C 55.625 -248.078125 59.640625 -258.984375 67.671875 -266.515625 C 75.703125 -274.054688 86.457031 -277.828125 99.9375 -277.828125 L 117.203125 -277.828125 L 117.203125 -254.328125 L 105 -254.328125 C 97.269531 -254.328125 91.519531 -252.585938 87.75 -249.109375 C 83.976562 -245.640625 82.09375 -239.941406 82.09375 -232.015625 C 82.09375 -226.265625 82.488281 -219.175781 83.28125 -210.75 C 84.082031 -202.320312 84.582031 -196.617188 84.78125 -193.640625 C 86.757812 -174.609375 87.75 -160.726562 87.75 -152 C 87.75 -141.488281 85.117188 -132.710938 79.859375 -125.671875 C 74.609375 -118.628906 66.53125 -113.921875 55.625 -111.546875 L 55.625 -110.953125 C 66.53125 -108.566406 74.609375 -103.804688 79.859375 -96.671875 C 85.117188 -89.535156 87.75 -80.710938 87.75 -70.203125 C 87.75 -61.472656 86.757812 -47.59375 84.78125 -28.5625 C 84.582031 -25.582031 84.082031 -19.878906 83.28125 -11.453125 C 82.488281 -3.023438 82.09375 4.0625 82.09375 9.8125 C 82.09375 17.75 83.976562 23.453125 87.75 26.921875 C 91.519531 30.390625 97.269531 32.125 105 32.125 L 117.203125 32.125 L 117.203125 55.625 L 99.9375 55.625 C 86.457031 55.625 75.703125 51.851562 67.671875 44.3125 C 59.640625 36.78125 55.625 25.875 55.625 11.59375 C 55.625 2.875 56.613281 -11.203125 58.59375 -30.640625 C 60.582031 -48.878906 61.578125 -61.769531 61.578125 -69.3125 C 61.578125 -86.363281 51.460938 -96.773438 31.234375 -100.546875 Z M 31.234375 -121.65625 "
           id="path37"
           style="fill:#0000ff" />
      </g>
    </g>
  </g>
  <g
     fill="#1aede6"
     fill-opacity="1"
     id="g43"
     style="fill:#0000ff">
    <g
       transform="translate(612.330213, 536.009965)"
       id="g42"
       style="fill:#0000ff">
      <g
         id="g41"
         style="fill:#0000ff">
        <path
           d="M 106.921875 -101.234375 C 86.554688 -97.441406 76.375 -86.957031 76.375 -69.78125 C 76.375 -62.195312 77.375 -49.21875 79.375 -30.84375 C 81.363281 -11.28125 82.359375 2.894531 82.359375 11.6875 C 82.359375 26.0625 78.316406 37.039062 70.234375 44.625 C 62.148438 52.207031 51.316406 56 37.734375 56 L 20.359375 56 L 20.359375 32.34375 L 32.640625 32.34375 C 40.429688 32.34375 46.222656 30.59375 50.015625 27.09375 C 53.804688 23.601562 55.703125 17.867188 55.703125 9.890625 C 55.703125 4.097656 55.300781 -3.039062 54.5 -11.53125 C 53.707031 -20.019531 53.210938 -25.757812 53.015625 -28.75 C 51.015625 -47.914062 50.015625 -61.894531 50.015625 -70.6875 C 50.015625 -81.269531 52.660156 -90.15625 57.953125 -97.34375 C 63.242188 -104.53125 71.378906 -109.320312 82.359375 -111.71875 L 82.359375 -112.3125 C 71.378906 -114.707031 63.242188 -119.445312 57.953125 -126.53125 C 52.660156 -133.625 50.015625 -142.460938 50.015625 -153.046875 C 50.015625 -161.828125 51.015625 -175.800781 53.015625 -194.96875 C 53.210938 -197.96875 53.707031 -203.707031 54.5 -212.1875 C 55.300781 -220.675781 55.703125 -227.816406 55.703125 -233.609375 C 55.703125 -241.597656 53.804688 -247.335938 50.015625 -250.828125 C 46.222656 -254.328125 40.429688 -256.078125 32.640625 -256.078125 L 20.359375 -256.078125 L 20.359375 -279.734375 L 37.734375 -279.734375 C 51.316406 -279.734375 62.148438 -275.9375 70.234375 -268.34375 C 78.316406 -260.757812 82.359375 -249.78125 82.359375 -235.40625 C 82.359375 -226.625 81.363281 -212.445312 79.375 -192.875 C 77.375 -174.507812 76.375 -161.53125 76.375 -153.9375 C 76.375 -136.769531 86.554688 -126.289062 106.921875 -122.5 Z M 106.921875 -101.234375 "
           id="path40"
           style="fill:#0000ff" />
      </g>
    </g>
  </g>
  <path
     style="font-weight:bold;font-size:9px;font-family:'Liberation Mono';-inkscape-font-specification:'Liberation Mono Bold';text-align:center;text-anchor:middle;white-space:pre;inline-size:123.673;fill:#ffffff;stroke-width:7.5671;fill-opacity:1"
     d="m 465.76707,511.57509 h 45.11478 v 9.10064 h -15.31737 v 35.64431 h 15.31737 v 9.10064 h -45.11478 v -9.10064 h 15.31736 v -35.64431 h -15.31736 z"
     id="path58" />
  <path
     style="font-weight:bold;font-size:9px;font-family:'Liberation Mono';-inkscape-font-specification:'Liberation Mono Bold';text-align:center;text-anchor:middle;white-space:pre;inline-size:123.673;fill:#ffffff;stroke-width:7.5671;fill-opacity:1"
     d="m 453.06005,558.03635 q -11.96821,8.18263 -24.28117,8.18263 -12.85484,0 -20.09481,-7.30449 -7.24008,-7.34437 -7.24008,-20.6761 0,-27.50156 27.48261,-27.50156 8.8654,0 14.48005,3.7121 5.61476,3.71219 8.27431,11.25611 l -13.49502,2.15547 q -2.61035,-7.86336 -9.11163,-7.86336 -6.64899,0 -9.80111,4.31084 -3.10282,4.31085 -3.10282,13.9304 0,8.90108 3.29984,13.73084 3.29984,4.82975 10.04735,4.82975 2.61047,0 5.36853,-0.79839 2.80738,-0.79838 4.87596,-2.15537 v -9.38012 h -13.49501 v -8.70154 h 26.793 z"
     id="path57" />
  <path
     style="font-weight:bold;font-size:9px;font-family:'Liberation Mono';-inkscape-font-specification:'Liberation Mono Bold';text-align:center;text-anchor:middle;white-space:pre;inline-size:123.673;fill:#ffffff;stroke-width:7.5671;fill-opacity:1"
     d="m 343.72071,565.42068 v -53.84559 h 47.67593 v 9.10064 h -33.14657 v 12.93254 h 30.14216 v 9.10064 h -30.14216 v 13.61113 h 35.16584 v 9.10064 z"
     id="path56" />
  <path
     style="font-weight:bold;font-size:9px;font-family:'Liberation Mono';-inkscape-font-specification:'Liberation Mono Bold';text-align:center;text-anchor:middle;white-space:pre;inline-size:123.673;fill:#ffffff;stroke-width:7.5671;fill-opacity:1"
     d="m 313.28301,565.42068 -18.91275,-40.31439 q 1.37909,10.05871 1.37909,14.13004 v 26.18435 h -12.65781 v -53.84559 h 16.59794 l 19.35601,41.39208 q -1.37909,-9.38012 -1.37909,-14.5691 v -26.82298 h 12.65781 v 53.84559 z"
     id="path55" />
  <path
     style="font-weight:bold;font-size:9px;font-family:'Liberation Mono';-inkscape-font-specification:'Liberation Mono Bold';text-align:center;text-anchor:middle;white-space:pre;inline-size:123.673;fill:#ffffff;stroke-width:7.5671;fill-opacity:1"
     d="m 527.50433,460.54086 v -22.91132 h -17.8784 v 22.91132 h -14.52937 v -53.84559 h 14.52937 v 21.19492 h 17.8784 v -21.19492 h 14.52936 v 53.84559 z"
     id="path54" />
  <path
     style="font-weight:bold;font-size:9px;font-family:'Liberation Mono';-inkscape-font-specification:'Liberation Mono Bold';text-align:center;text-anchor:middle;white-space:pre;inline-size:123.673;fill:#ffffff;stroke-width:7.5671;fill-opacity:1"
     d="m 483.32538,453.15653 q -11.96821,8.18262 -24.28117,8.18262 -12.85484,0 -20.09481,-7.30449 -7.24008,-7.34436 -7.24008,-20.6761 0,-27.50155 27.48261,-27.50155 8.8654,0 14.48005,3.7121 5.61476,3.7121 8.27431,11.2561 l -13.49502,2.15547 q -2.61035,-7.86336 -9.11163,-7.86336 -6.64899,0 -9.80111,4.31085 -3.10282,4.31085 -3.10282,13.93039 0,8.90109 3.29984,13.73084 3.29984,4.82976 10.04735,4.82976 2.61036,0 5.36853,-0.79839 2.80738,-0.79839 4.87596,-2.15538 v -9.38012 h -13.49501 v -8.70153 h 26.793 z"
     id="path53" />
  <path
     style="font-weight:bold;font-size:9px;font-family:'Liberation Mono';-inkscape-font-specification:'Liberation Mono Bold';text-align:center;text-anchor:middle;white-space:pre;inline-size:123.673;fill:#ffffff;stroke-width:7.5671;fill-opacity:1"
     d="m 404.079,460.54086 -18.91275,-40.31439 q 1.37909,10.05861 1.37909,14.13003 v 26.18436 h -12.65781 v -53.84559 h 16.59794 l 19.35601,41.39208 q -1.37909,-9.38012 -1.37909,-14.56911 v -26.82297 h 12.65781 v 53.84559 z"
     id="path52" />
  <path
     style="font-weight:bold;font-size:9px;font-family:'Liberation Mono';-inkscape-font-specification:'Liberation Mono Bold';text-align:center;text-anchor:middle;white-space:pre;inline-size:123.673;fill:#ffffff;stroke-width:7.5671;fill-opacity:1"
     d="m 314.44041,406.69527 h 45.11478 v 9.10064 h -15.31736 v 35.64431 h 15.31736 v 9.10064 h -45.11478 v -9.10064 h 15.31737 v -35.64431 h -15.31737 z"
     id="path51" />
  <path
     style="font-weight:bold;font-size:9px;font-family:'Liberation Mono';-inkscape-font-specification:'Liberation Mono Bold';text-align:center;text-anchor:middle;white-space:pre;inline-size:123.673;fill:#ffffff;stroke-width:7.5671;fill-opacity:1"
     d="m 303.55575,444.93403 q 0,7.66372 -7.23997,12.0544 -7.19088,4.35072 -20.04561,4.35072 -11.57415,0 -18.86344,-3.95161 -7.28939,-3.95162 -9.35797,-11.49554 l 14.0369,-1.47688 q 1.13275,3.75197 4.72814,5.94732 3.59538,2.15547 9.85043,2.15547 6.50128,0 9.60409,-1.67644 3.15212,-1.67644 3.15212,-5.22895 0,-2.63432 -2.75806,-4.43056 -2.75818,-1.83611 -8.02809,-2.87384 -10.58923,-2.07563 -14.97262,-3.59239 -4.33418,-1.55672 -6.94454,-3.47267 -2.61035,-1.91586 -4.03864,-4.47044 -1.37909,-2.59453 -1.37909,-5.78773 0,-6.98513 6.89534,-11.05655 6.94454,-4.07133 18.27246,-4.07133 11.03238,0 17.23823,3.55242 6.20573,3.51255 8.02797,10.93684 l -14.08599,1.15753 q -2.16709,-7.30449 -11.47575,-7.30449 -5.22071,0 -7.97877,1.5966 -2.75818,1.55672 -2.75818,4.5104 0,1.95582 1.32988,3.27303 1.32978,1.27733 3.59539,2.19534 2.31481,0.87832 9.35786,2.35502 9.25934,1.83612 14.23382,4.1113 4.97447,2.23522 7.28928,5.42841 2.31481,3.19329 2.31481,7.26462 z"
     id="path50" />
  <path
     style="font-weight:bold;font-size:9px;font-family:'Liberation Mono';-inkscape-font-specification:'Liberation Mono Bold';text-align:center;text-anchor:middle;white-space:pre;inline-size:123.673;fill:#ffffff;stroke-width:7.5671;fill-opacity:1"
     d="m 639.62651,355.66103 h -14.48016 l -4.53111,-13.17206 h -22.45893 l -4.53121,13.17206 h -14.52925 l 21.81853,-53.84568 h 16.94268 z m -30.24079,-46.58106 q -0.39338,1.67644 -1.47749,5.02931 -1.03446,3.3129 -6.69831,19.51848 h 16.35171 q -5.76247,-16.445 -6.79682,-19.67816 -0.98514,-3.23316 -1.37909,-4.86963 z"
     id="path49" />
  <path
     style="font-weight:bold;font-size:9px;font-family:'Liberation Mono';-inkscape-font-specification:'Liberation Mono Bold';text-align:center;text-anchor:middle;white-space:pre;inline-size:123.673;fill:#ffffff;stroke-width:7.5671;fill-opacity:1"
     d="M 562.64562,355.66103 548.3626,335.10464 h -8.52066 v 20.55639 h -14.52925 v -53.84568 h 24.33049 q 13.00244,0 19.45452,4.1113 6.45196,4.1113 6.45196,11.85476 0,5.46847 -3.64469,9.30028 -3.64459,3.83191 -10.09655,5.38854 l 17.18891,23.1908 z m -1.72383,-37.40058 q 0,-3.75207 -3.05361,-5.50834 -3.05361,-1.79615 -9.75181,-1.79615 h -8.27443 v 15.00808 h 8.66838 q 12.41147,0 12.41147,-7.70359 z"
     id="path48" />
  <path
     style="font-weight:bold;font-size:9px;font-family:'Liberation Mono';-inkscape-font-specification:'Liberation Mono Bold';text-align:center;text-anchor:middle;white-space:pre;inline-size:123.673;fill:#ffffff;stroke-width:7.5671;fill-opacity:1"
     d="m 514.62495,328.31906 q 0,13.17206 -7.58472,20.27691 -7.58482,7.06506 -21.62161,7.06506 h -20.7351 v -53.84568 h 17.78 q 16.15457,0 24.13345,6.58603 8.02798,6.54607 8.02798,19.91768 z m -14.62777,0 q 0,-9.06076 -4.23567,-13.21193 -4.18647,-4.19105 -13.54433,-4.19105 h -3.0043 v 35.64422 h 5.02368 q 15.76062,0 15.76062,-18.24124 z"
     id="path47" />
  <path
     style="font-weight:bold;font-size:9px;font-family:'Liberation Mono';-inkscape-font-specification:'Liberation Mono Bold';text-align:center;text-anchor:middle;white-space:pre;inline-size:123.673;fill:#ffffff;stroke-width:7.5671;fill-opacity:1"
     d="m 434.34433,355.66103 -18.91275,-40.31439 q 1.37909,10.05862 1.37909,14.12995 v 26.18444 h -12.65781 v -53.84568 h 16.59794 l 19.35601,41.39208 q -1.37909,-9.38003 -1.37909,-14.56901 v -26.82307 h 12.65781 v 53.84568 z"
     id="path46" />
  <path
     style="font-weight:bold;font-size:9px;font-family:'Liberation Mono';-inkscape-font-specification:'Liberation Mono Bold';text-align:center;text-anchor:middle;white-space:pre;inline-size:123.673;fill:#ffffff;stroke-width:7.5671;fill-opacity:1"
     d="m 343.72071,355.66103 v -53.84568 h 47.67593 v 9.10073 h -33.14657 v 12.93246 h 30.14216 v 9.10072 h -30.14216 v 13.61104 h 35.16584 v 9.10073 z"
     id="path45" />
  <path
     style="font-weight:bold;font-size:9px;font-family:'Liberation Mono';-inkscape-font-specification:'Liberation Mono Bold';text-align:center;text-anchor:middle;white-space:pre;inline-size:123.673;fill:#ffffff;stroke-width:7.5671;fill-opacity:1"
     d="m 320.52309,355.66103 -14.28313,-20.55639 h -8.52055 v 20.55639 h -14.52936 v -53.84568 h 24.33048 q 13.00256,0 19.45453,4.1113 6.45196,4.1113 6.45196,11.85476 0,5.46847 -3.64458,9.30028 -3.6447,3.83191 -10.09667,5.38854 l 17.18892,23.1908 z m -1.72383,-37.40058 q 0,-3.75207 -3.05361,-5.50834 -3.05361,-1.79615 -9.75192,-1.79615 h -8.27432 v 15.00808 h 8.66838 q 12.41147,0 12.41147,-7.70359 z"
     id="path44" />
  <path
     style="font-weight:bold;font-size:9px;font-family:'Liberation Mono';-inkscape-font-specification:'Liberation Mono Bold';text-align:center;text-anchor:middle;white-space:pre;inline-size:123.673;fill:#ffffff;stroke-width:7.5671;fill-opacity:1"
     d="m 276.44254,355.66103 h -14.48005 l -4.53121,-13.17206 h -22.45882 l -4.53122,13.17206 h -14.52936 l 21.81865,-53.84568 h 16.94268 z m -30.24067,-46.58106 q -0.39451,1.67644 -1.4776,5.02931 -1.03446,3.3129 -6.6982,19.51848 h 16.3516 q -5.76248,-16.445 -6.79671,-19.67816 -0.98515,-3.23316 -1.37909,-4.86963 z"
     id="path43" />
  <path
     style="font-weight:bold;font-size:9px;font-family:'Liberation Mono';-inkscape-font-specification:'Liberation Mono Bold';text-align:center;text-anchor:middle;white-space:pre;inline-size:123.673;fill:#ffffff;stroke-width:7.5671;fill-opacity:1"
     d="m 194.58581,355.66103 v -22.91141 h -17.8784 v 22.91141 h -14.52937 v -53.84568 h 14.52937 v 21.19501 h 17.8784 v -21.19501 h 14.52936 v 53.84568 z"
     id="text43" />
</svg>
